<svg id="Layer_1" data-name="Layer 1" xmlns="http://www.w3.org/2000/svg" viewBox="0 0 1024 1024"><defs><style>.cls-1{fill:#43a1ff;}.cls-2{fill:#ffd400;}.cls-3{fill:#fff;}.cls-4{fill:#3eaadf;}.cls-5{fill:#00a19a;}.cls-6{fill:#ffe448;}.cls-7{fill:#e10f21;}.cls-8{fill:#ededed;}.cls-9{fill:#ce0b22;}.cls-10{fill:#009385;}.cls-11{fill:#00c6b7;}.cls-12{fill:#ffbc00;}</style></defs><rect class="cls-1" x="-1.14" y="-1.14" width="1026.27" height="1026.27" rx="513.13"/><path class="cls-2" d="M769.55,470.12l.1,87.59c0,12.39-10.95,22.44-24.49,22.46l-511.73.6c-13.54,0-24.53-10-24.55-22.4l-.16-140.76c0-12.39,10.95-22.45,24.49-22.46L336.88,395a25.46,25.46,0,0,1,18.84,8l33.8,37a25.49,25.49,0,0,0,18.84,8.05l336.64-.4C758.54,447.71,769.53,457.73,769.55,470.12Z"/><path class="cls-3" d="M694,599.35,387.7,730.23,225.58,350.83,531.86,220,686,580.67Z"/><rect class="cls-4" x="295.11" y="289.49" width="298.09" height="298.09" transform="translate(-136.59 209.8) rotate(-23.14)"/><path class="cls-3" d="M667.49,627.63,365.8,486.5,540.62,112.79,842.31,253.92,676.1,609.23Z"/><rect class="cls-5" x="471.85" y="185.15" width="298.09" height="298.09" transform="translate(200.09 -231.6) rotate(25.07)"/><path class="cls-6" d="M699.83,836.05l-420.47.5c-21,0-38.91-12.26-42.19-29q-27.46-140-54.94-279.91c-4.09-20.83,15.9-39.68,42.1-39.71l529.7-.63c26.21,0,46.24,18.78,42.21,39.61Q769.09,667,742,807C738.71,823.7,720.84,836,699.83,836.05Z"/><path class="cls-3" d="M712.67,658A17,17,0,0,1,696,675.24l-116.88,1.89-.54-34,116.87-1.88A17,17,0,0,1,712.67,658Z"/><path class="cls-7" d="M578.53,643.14l.54,34-291.52,4.69a17,17,0,1,1-.55-34Z"/><path class="cls-8" d="M712.67,658A17,17,0,0,1,696,675.24l-116.89,1.89-.2-12.64,116.88-1.88a16.9,16.9,0,0,0,11.93-5.17,17.3,17.3,0,0,0,3.68-5.76A17.13,17.13,0,0,1,712.67,658Z"/><path class="cls-9" d="M578.86,664.49l.2,12.64-291.51,4.69a17,17,0,0,1-17.27-16.72,16.61,16.61,0,0,1,1.11-6.33,17,17,0,0,0,15.95,10.42Z"/><path class="cls-10" d="M422.74,406.05l396.32-143.7L549.05,136q-63.16,135-126.31,270"/><path class="cls-2" d="M796.46,533.82q-27.13,140-54.28,280c-3.24,16.7-21.11,29-42.12,29.06l-420.47.5c-21,0-38.91-12.26-42.19-29q-27.47-140-55-279.92a28,28,0,0,1,2.89-18.82q25.74,131.1,51.47,262.21c3.28,16.7,21.18,29,42.19,29l420.47-.5c21,0,38.88-12.35,42.12-29.06q25.56-131.9,51.12-263.77A28.27,28.27,0,0,1,796.46,533.82Z"/><path class="cls-11" d="M556.77,181.63a4.32,4.32,0,0,1,.28-2.83h0a7.7,7.7,0,0,1,3.35-3.33h0A11.71,11.71,0,0,1,565,174h0a5.51,5.51,0,0,1,2.67.33h0a3.62,3.62,0,0,1,.43.24h0a4.76,4.76,0,0,1,2,2.49h0c.05.17.1.34.14.5h0c.42-.74,1-1.67,1.5-2.63h0c1.29-2.27,2.7-4.79,3.06-5.59h0l.06-.15h0a6,6,0,0,1,.39-1.41h0a1.65,1.65,0,0,1,.54-.71h0a1.09,1.09,0,0,1,1.06-.09h0a2.16,2.16,0,0,1,1.08,2.86h0a2.47,2.47,0,0,1-.41.62h0l-.05.07h0c0,.06-.11.16-.19.27h0c-.15.23-.35.55-.58.94h0c-.47.78-1.08,1.81-1.73,3h0c-1.19,2.1-2.54,4.56-3.47,6.43h0a2.62,2.62,0,0,1,.51.6h0a1.36,1.36,0,0,1,.16.88h0a2.25,2.25,0,0,1-.18.59h0a1.37,1.37,0,0,1-.61.67h0a1.57,1.57,0,0,1-.76.17h0a7.33,7.33,0,0,1-.83-.07h0a11.51,11.51,0,0,1-.48,1.38h0a4.07,4.07,0,0,1-.4.7h0a1.56,1.56,0,0,1-.71.55h0a1.08,1.08,0,0,1-.75,0h0l-.12-.07h0a2.37,2.37,0,0,1-.83-.8h0a1.62,1.62,0,0,1-.2-.95h0a2.28,2.28,0,0,1,.06-.39h0c-.54.08-1.26.17-2.06.21h0a12.15,12.15,0,0,1-5.41-.65h0a3.42,3.42,0,0,1-2-2.31Zm6-4.14a6.55,6.55,0,0,0-3.1,2.59h0a.89.89,0,0,0-.08.71h0a1.08,1.08,0,0,0,.65.64h0a7.31,7.31,0,0,0,3.18.27h0c1.21-.08,2.54-.28,3.81-.44h0c.05-.22.11-.52.16-.86h0a6.73,6.73,0,0,0,0-2.37h0a1.62,1.62,0,0,0-.58-1h0a.94.94,0,0,0-.22-.12h0l0,0h0a5.27,5.27,0,0,0-3.77.58Zm10.6,9.71a12.34,12.34,0,0,1,.14-4.18h0a31.61,31.61,0,0,1,1.78-6h0l.09-.23h0a1.68,1.68,0,0,1,.73-.84h0a1.17,1.17,0,0,1,1,0h0a.94.94,0,0,1,.22.12h0a1.67,1.67,0,0,1,.79,1.25h0a2,2,0,0,1-.18,1h0l-.32.68h0a26.12,26.12,0,0,0-1.63,4.6h0a6.3,6.3,0,0,0-.18,2.86h0c.11.39.25.52.42.6h0a.79.79,0,0,0,.42.07h0a3.06,3.06,0,0,0,1.8-.81h0a9.06,9.06,0,0,0,1.65-1.9h0a21.39,21.39,0,0,0,1.81-3.31h0a1,1,0,0,0,0-.1h0a2,2,0,0,1,.62-.81h0a1.4,1.4,0,0,1,1.43-.07h0l.09,0h0a1.28,1.28,0,0,1,.66.7h0a1.77,1.77,0,0,1,.12.75h0a2.71,2.71,0,0,1-.16.79h0l0,.06,0,.05c-.19.31-.9,1.66-1.87,3.12h0a15.74,15.74,0,0,1-3.67,4.11h0a3.74,3.74,0,0,1-3.18.73h0a4.09,4.09,0,0,1-.49-.18h0a3.84,3.84,0,0,1-2.1-3Zm9.94,7.6-.22-.12h0a1.7,1.7,0,0,1-.79-1.09h0a1.56,1.56,0,0,1,0-.69h0l-.13-.1h0a1.46,1.46,0,0,1-.53-1h0v-.07a.68.68,0,0,1,0-.19h0l0-.08h0c0-.06,0-.12.07-.19h0c0-.15.13-.35.23-.6h0c.21-.48.49-1.15.83-1.9h0a57.1,57.1,0,0,1,2.58-5.12h0a1.88,1.88,0,0,1,0-1.08h0v0a.69.69,0,0,1,0-.1h0a1.41,1.41,0,0,1,.78-.7h0a2.66,2.66,0,0,1,.63-.17h0l.18-.24h0c.22-.29.53-.71.87-1.2h0a22.51,22.51,0,0,0,2-3.35h0a1.42,1.42,0,0,0,.08-.18h0a3.24,3.24,0,0,0,.11-.53h0a3.7,3.7,0,0,1,.25-.93h0a1.37,1.37,0,0,1,.65-.71h0a1.42,1.42,0,0,1,1.09,0h0l.12,0h0a1.28,1.28,0,0,1,.62.64h0a2.35,2.35,0,0,1,.2.83h0a4.35,4.35,0,0,1-.38,2h0c0,.06,0,.12-.08.19h0a11.37,11.37,0,0,1-1.27,2.1h0c-.4.54-.87,1.15-1.47,2h0a11.88,11.88,0,0,1,2.88,1.86h0a5.58,5.58,0,0,1,2.09,4.08h0a2.36,2.36,0,0,1-.22,1h0a5,5,0,0,1-1.78,1.9h0a15.77,15.77,0,0,1-2.64,1.42h0a42.33,42.33,0,0,1-4.82,1.71h0l-.5.17h0a2.79,2.79,0,0,0-.39.2h0a1.36,1.36,0,0,1-.58.23h0a1,1,0,0,1-.55-.09h0Zm2.84-6.54c-.6,1.35-1,2.47-1.25,3.22h0c.36-.09.79-.2,1.25-.34h0a19.59,19.59,0,0,0,4.12-1.61h0a3.59,3.59,0,0,0,1.51-1.35h0a.73.73,0,0,0,.08-.37h0a2.42,2.42,0,0,0-.92-1.44h0a9.16,9.16,0,0,0-2.23-1.43h0l-.51-.21h0c-.12.17-.27.39-.43.64h0a24.52,24.52,0,0,0-1.36,2.33h0c-.09.19-.17.38-.26.56Zm6.44,11.57a1.93,1.93,0,0,1-.81-.77h0a1.19,1.19,0,0,1-.12-.83h0a5.22,5.22,0,0,1,.21-.82h0c.2-.61.51-1.37.9-2.24h0c1.53-3.38,4.25-8.43,5.84-11.36h0c.81-1.49,1.48-2.77,2-3.76h0a12.33,12.33,0,0,1,1.3-2.09h0a1.12,1.12,0,0,1,.47-.34h0a1.6,1.6,0,0,1,1.14,0h0a1.85,1.85,0,0,1,.93,1.16h0a1.51,1.51,0,0,1,.07.68h0a2.37,2.37,0,0,1-.21.69h0c-.26.56-.71,1.28-1.49,2.55h0c-.78,1.27-1.88,3.08-3.42,5.74h0c-1.19,2.07-2.3,4.24-3.17,6.17h0c-.56,1.24-1,2.38-1.34,3.33h0v0c0,.12-.11.28-.18.45h0a5.65,5.65,0,0,1-.44.78h0a1.79,1.79,0,0,1-.81.68h0a1.19,1.19,0,0,1-.87,0h0Zm5.16.11.51-.42-.51.42a4.45,4.45,0,0,1-.85-2.43h0a6.62,6.62,0,0,1,.56-3.13h0a6.43,6.43,0,0,1,1.49-2.07h0a14.48,14.48,0,0,1,4.07-2.87h0a4.47,4.47,0,0,1,3.21-.26h0a1.09,1.09,0,0,1,.23.09h0a4.44,4.44,0,0,1,2,2h0a5.83,5.83,0,0,1,.33,4.2h0a6.72,6.72,0,0,1-.42,1.17h0a7.53,7.53,0,0,1-4.54,4h0a7.14,7.14,0,0,1-5,0h0a3.09,3.09,0,0,1-1.09-.79Zm7.69-7.82-.23,0h0a3.5,3.5,0,0,0-1,.14h0a8,8,0,0,0-3.66,2.57h0a2.48,2.48,0,0,0-.46.73h0a3.88,3.88,0,0,0-.35,1.54h0a1.39,1.39,0,0,0,.35,1h0a.7.7,0,0,0,.21.14h0a3.38,3.38,0,0,0,2,0h0a5.24,5.24,0,0,0,1.88-.87h0a6.17,6.17,0,0,0,1.78-2.13h0a3.54,3.54,0,0,0,.32-1.61h0a2.19,2.19,0,0,0-.14-1h0a1.43,1.43,0,0,0-.38-.45h0l-.31-.08h0Zm-.1-.21.26-.43-.26.43ZM549,171.14a10.88,10.88,0,0,1,2.71-1.26,12.54,12.54,0,0,1,5.84-.07l.81.46a4,4,0,0,1,1.48,1.74,2.35,2.35,0,0,1-.55,2.36,4,4,0,0,1-2.87,1.55,9.3,9.3,0,0,1-3.74-.31c-1.23-.36-2-.45-2.2-.26s-.22.56,0,1.11a7.75,7.75,0,0,0,2.5,2.33,14.39,14.39,0,0,0,3.75,2,16.06,16.06,0,0,0,2.76.65c.75.09,1.15,1.11,1.53,1.23s.55.45.49,1c-1.13.48-2-.22-2.95-.26a15.66,15.66,0,0,1-3.33-.58A19.17,19.17,0,0,1,551,181l-.92-.58a13,13,0,0,1-3-2.79,4.82,4.82,0,0,1-.72-1.86,4.55,4.55,0,0,1,.41-2.18A8.05,8.05,0,0,1,549,171.14Zm2.26,2.09a10.17,10.17,0,0,0,3.61.45c.72-.12,1.16-.38,1.31-.76s-.25-.62-1.19-.7a4.66,4.66,0,0,0-2.15.21A13.83,13.83,0,0,0,551.26,173.23Z"/><path class="cls-11" d="M595.68,211.2a13.35,13.35,0,0,1-4.72-5.69h0a1.09,1.09,0,0,1,0-.85h0a.7.7,0,0,1,.09-.17h0a1.49,1.49,0,0,1,.75-.58h0a1.6,1.6,0,0,1,1,0h0l.16.05h0a1.31,1.31,0,0,1,.63.68h0a8.66,8.66,0,0,0,1.17,1.86h0a15,15,0,0,0,1.59,1.67h0a14.49,14.49,0,0,0,2.78,1.95h0c.33.18.66.34,1,.49h0a12.37,12.37,0,0,0,2.15.73h0a13.76,13.76,0,0,0,3,.38h0a6.52,6.52,0,0,0,4-1.78h0a17.5,17.5,0,0,0,3.07-4.64h0c-.28.16-.56.3-.85.43h0a6.73,6.73,0,0,1-1.58.49h0a4.7,4.7,0,0,1-2-.09h0a1.73,1.73,0,0,1-.32-.11h0a1.9,1.9,0,0,1-.72-.54h0a3.17,3.17,0,0,1-.57-1h0a4.51,4.51,0,0,1,.1-3.23h0c0-.1.08-.2.13-.3h0a7.65,7.65,0,0,1,1.84-2.55h0a19.35,19.35,0,0,1,2.77-2.18h0c.24-.15.65-.38,1.26-.7h0a13.41,13.41,0,0,1,2.06-.84h0a8.57,8.57,0,0,1,2.27-.42h0a3.12,3.12,0,0,1,1.38.24h0a2.75,2.75,0,0,1,.63.39h0a1,1,0,0,1,.29.35h0a.49.49,0,0,1,0,.41h0a.43.43,0,0,1,0,.07h0a1.29,1.29,0,0,1-.58.45h0l.1,0h0a2.56,2.56,0,0,1,.39.22h0a1.32,1.32,0,0,1,.65,1.69h0l0,.1h0l-2.58,4.9h0c-.86,1.64-1.8,3.23-2.75,4.81h0a21,21,0,0,1-2.8,3.81h0a8.4,8.4,0,0,1-1.67,1.39h0a8.25,8.25,0,0,1-3.35,1.15h0a12.63,12.63,0,0,1-3.68-.09h0a15.89,15.89,0,0,1-3.7-1.11h0a18.51,18.51,0,0,1-3.29-1.88Zm20.81-14.45a7.67,7.67,0,0,0-.81.33h0l-.9.44h0a9.25,9.25,0,0,0-1.58,1h0c-.47.37-.94.75-1.41,1.15h0a8.19,8.19,0,0,0-2.36,2.7h0v0h0a3.45,3.45,0,0,0-.29.93h0c0,.21,0,.31,0,.35h.06l.21,0h0a6.25,6.25,0,0,0,.73-.37h0a16.89,16.89,0,0,0,2.51-1.95h0A25,25,0,0,0,614.9,199h0l2-2.37h0l-.44.13Z"/><path class="cls-11" d="M617.24,210.08a6.63,6.63,0,0,1-1.17-2.78h0a1,1,0,0,1,.07-.6h0a1.08,1.08,0,0,1,.23-.34h0a1.87,1.87,0,0,1,.87-.48h0a1.74,1.74,0,0,1,1,0h0l.11,0h0a.93.93,0,0,1,.54.7h0a4.58,4.58,0,0,0,.71,1.67h0a.94.94,0,0,0,.43.4h0a.84.84,0,0,0,.72,0h0s0,0,0,0h0l.12-.11h0a1.73,1.73,0,0,0,.35-.55h0l0,0h0a2.9,2.9,0,0,0,.2-1h0a3.37,3.37,0,0,0-.39-1.52h0q-.22-.47-.51-.93h0a3.88,3.88,0,0,1-.46-1h0a3.12,3.12,0,0,1,.16-2.15h0a4.09,4.09,0,0,1,.31-.58h0a4.23,4.23,0,0,1,2.67-1.84h0a7.4,7.4,0,0,1,3.2-.09h0a.81.81,0,0,1,.22.07h0a.87.87,0,0,1,.48.53h0a1,1,0,0,1,0,.72h0a.76.76,0,0,1-.09.18h0a1.73,1.73,0,0,1-1.53.74h0a4.44,4.44,0,0,0-.93.11h0a3.48,3.48,0,0,0-1,.35h0a1.45,1.45,0,0,0-.63.59h0a.09.09,0,0,0,0,.06h0a.84.84,0,0,0,.08.75h0a10.64,10.64,0,0,0,.55,1.06h0a4.63,4.63,0,0,1,.51,1.18h0a10.49,10.49,0,0,1,.3,1.65h0a3.94,3.94,0,0,1-.17,1.71h0a4.6,4.6,0,0,1-.19.52h0a4.79,4.79,0,0,1-1.38,1.81h0a3.45,3.45,0,0,1-2.7.78h0a4.35,4.35,0,0,1-1.18-.3h0a3.45,3.45,0,0,1-1.45-1.21Zm3.63-1.28.07-.16-.07.16Zm0-.1,0-.07,0,.07Z"/><path class="cls-11" d="M622.49,191.55a.94.94,0,0,1,1-.14.69.69,0,0,1,.26.94,1.35,1.35,0,0,1-.5.47L621.46,194a.92.92,0,0,1-1.05.14.69.69,0,0,1-.26-.94,1.35,1.35,0,0,1,.5-.47Z"/><path class="cls-11" d="M618.77,189.54c.13-.36.29-.7.75-.75a.69.69,0,0,1,.78.58,1.43,1.43,0,0,1-.12.68l-.76,2c-.14.36-.3.7-.76.75a.69.69,0,0,1-.78-.58,1.57,1.57,0,0,1,.12-.68Z"/><path class="cls-11" d="M615.08,189.18c0-.38,0-.76.4-1a.68.68,0,0,1,.95.23,1.3,1.3,0,0,1,.15.67l.1,2.19c0,.38,0,.75-.4,1a.7.7,0,0,1-.95-.24,1.29,1.29,0,0,1-.15-.66Z"/><path class="cls-11" d="M613.85,191.72a.91.91,0,0,1,.19,1,.69.69,0,0,1-.93.31,1.4,1.4,0,0,1-.48-.47l-1.26-1.79a1,1,0,0,1-.19-1.05.71.71,0,0,1,.93-.31,1.45,1.45,0,0,1,.49.48Z"/><path class="cls-11" d="M624.15,194.91a.93.93,0,0,1,1,.29.69.69,0,0,1-.13,1,1.37,1.37,0,0,1-.65.23l-2.16.33a.9.9,0,0,1-1-.29.7.7,0,0,1,.13-1,1.44,1.44,0,0,1,.65-.22Z"/><path class="cls-12" d="M509.27,773.77c-2.14.34-5.55,2.44-7.48,3.36-1.72.82-4.15,2-6.66,1.19-1.09-.34-2.89-1.34-3-2.69s1.53-2.64,4.81-5.31c.71-.58.95-.74,1.33-1,1.74-1.4,6.13-4.92,6.08-9.48A7.77,7.77,0,0,0,500.4,753a7.52,7.52,0,0,0-5.12-.39A10.91,10.91,0,0,0,491,755a22.14,22.14,0,0,0-6.17,7.26,17.31,17.31,0,0,0-2.34,7.8,15.48,15.48,0,0,0,1.36,7,13.16,13.16,0,0,0,4.18,5.32,13.36,13.36,0,0,0,5,2.22,17.1,17.1,0,0,0,6.41.27,19,19,0,0,0,9.93-4.91c2.75-2.28,2.81-3.39,2.74-3.92a3,3,0,0,0-1.93-2.28A2.08,2.08,0,0,0,509.27,773.77Zm-20.21-4c-1.07-.76.37-5.61,3.47-8.3,1-.83,2.92-2.25,3.74-1.68s-.08,3.46-.15,3.67a9.08,9.08,0,0,1-2.16,3.21C493,767.68,490,770.49,489.06,769.81Z"/><rect class="cls-12" x="484.77" y="737.2" width="4.51" height="13.12" rx="2.22" transform="translate(-261.95 264.79) rotate(-24.18)"/><rect class="cls-12" x="494.88" y="735.03" width="4.51" height="13.12" rx="2.22" transform="translate(77.71 -46.56) rotate(5.82)"/><rect class="cls-12" x="476.93" y="743.09" width="4.51" height="13.12" rx="2.22" transform="translate(1367.49 799.77) rotate(125.82)"/><rect class="cls-12" x="473.34" y="752.1" width="4.51" height="13.12" rx="2.22" transform="translate(1292.21 391.37) rotate(97.87)"/><rect class="cls-12" x="504" y="738.33" width="4.51" height="13.12" rx="2.22" transform="translate(499.43 -155.73) rotate(33.77)"/></svg>